# xmcd
#
# Track frame offsets: 
#        150
#        16800
#        39695
#        73400
#        91125
#        109070
#        130220
#        144225
#        176065
#
# Disc length: 2665 seconds
#
# Revision: 1
# Processed by: cddbd v1.5.2PL0 Copyright (c) Steve Scherf et al.
# Submitted via: ExactAudioCopy v0.99pb5
#
DISCID=790a6709
DTITLE=Stevie Ray Vaughan - Boogie with Stevie [Disc 2]
DYEAR=2007
DGENRE=Electric Blues
TTITLE0=Cold shot
TTITLE1=Things that I used to do
TTITLE2=You were wrong
TTITLE3=Lonely tearedrops
TTITLE4=Stangs swang
TTITLE5=Wham
TTITLE6=Last call
TTITLE7=Don't fall for me baby
TTITLE8=Jeff's boogie
EXTD=
EXTT0=
EXTT1=
EXTT2=
EXTT3=
EXTT4=
EXTT5=
EXTT6=
EXTT7=
EXTT8=
PLAYORDER=
